<svg width="128" height="128" viewBox="0 0 128 128" fill="none" xmlns="http://www.w3.org/2000/svg">
<rect width="128" height="128" fill="#161821"/>
<mask id="mask0" mask-type="alpha" maskUnits="userSpaceOnUse" x="29" y="20" width="71" height="94">
<path d="M29 43.5H52.5V67H29V43.5Z" fill="#0775F5"/>
<path d="M52.5 20H76V43.5H52.5V20Z" fill="#0775F5"/>
<path d="M76 90.5H99.5V114H76V90.5Z" fill="#0775F5"/>
<path d="M76 43.5H99.5V67H76V43.5Z" fill="#0775F5"/>
<path d="M52.5 67H76V90.5H52.5V67Z" fill="#0775F5"/>
<path d="M76 20H99.5V43.5H76V20Z" fill="#0775F5"/>
<path d="M29 67H52.5V90.5H29V67Z" fill="#0775F5"/>
<path d="M29 20H52.5V43.5H29V20Z" fill="#0775F5"/>
</mask>
<g mask="url(#mask0)">
<rect x="21.9781" y="10.4502" width="84.263" height="112.912" fill="#0775F5"/>
</g>
</svg>
